<?xml version="1.0" encoding="UTF-8" standalone="no"?>
<svg
   version="1.0"
   width="300.000000pt"
   height="300.000000pt"
   viewBox="0 0 300.000000 300.000000"
   preserveAspectRatio="xMidYMid meet"
   id="svg91"
   sodipodi:docname="cover.svg"
   inkscape:version="1.1.2 (0a00cf5339, 2022-02-04)"
   xmlns:inkscape="http://www.inkscape.org/namespaces/inkscape"
   xmlns:sodipodi="http://sodipodi.sourceforge.net/DTD/sodipodi-0.dtd"
   xmlns="http://www.w3.org/2000/svg"
   xmlns:svg="http://www.w3.org/2000/svg">
  <defs
     id="defs95" />
  <sodipodi:namedview
     id="namedview93"
     pagecolor="#ffffff"
     bordercolor="#666666"
     borderopacity="1.0"
     inkscape:pageshadow="2"
     inkscape:pageopacity="0.0"
     inkscape:pagecheckerboard="0"
     inkscape:document-units="pt"
     showgrid="false"
     inkscape:zoom="2.335"
     inkscape:cx="205.56745"
     inkscape:cy="200"
     inkscape:window-width="1080"
     inkscape:window-height="1858"
     inkscape:window-x="0"
     inkscape:window-y="0"
     inkscape:window-maximized="1"
     inkscape:current-layer="g89" />
  <metadata
     id="metadata69">
Created by potrace 1.10, written by Peter Selinger 2001-2011
</metadata>
  <g
     transform="translate(0.000000,300.000000) scale(0.100000,-0.100000)"
     fill="#000000"
     stroke="none"
     id="g89">
    <path
       d="m 2842.7508,1559.4003 c -7.312,-12.5911 -21.1531,-18.3724 -33.7559,-15.1834 -19.6343,3.9367 -20.849,3.2126 -8.2816,-12.3457 9.671,-10.6992 9.6355,-23.0685 1.5876,-38.5678 -11.4587,-20.8255 -10.4893,-21.0708 10.8856,-9.9752 22.5897,11.8197 24.5286,11.3291 36.8389,-9.3216 11.5862,-19.4361 12.5557,-19.6814 13.117,6.9961 -0.1864,19.646 5.1751,28.6045 20.7097,32.9257 17.7189,4.8001 16.9948,6.0148 -6.0266,12.8717 -19.3889,4.9061 -25.6726,12.6852 -23.4413,29.6565 l 1.519,22.309 z"
       id="path71" />
    <path
       d="M 2501.9526,1188.126 C 2329.2384,998.89425 2245.3644,900.87706 2247.9641,889.12701 c 3.2073,-13.75248 5.0826,-15.15123 13.1777,-5.18316 10.2416,14.04668 513.073,565.28065 522.8236,572.98105 2.9744,2.9449 -0.5562,6.6113 -8.9362,8.7317 -9.4276,2.3856 -107.1904,-97.6633 -273.0766,-277.5306 z"
       id="path73"
       style="stroke-width:0.983995" />
    <path
       d="m 188.98309,1956.9978 c -8.29331,-16.4687 -14.8459,-17.9053 -29.13049,-9.1331 -21.54954,12.6734 -30.56699,-2.5806 -9.50806,-17.1929 10.4068,-7.791 10.38322,-16.0372 0.62985,-34.1995 -12.43996,-24.7031 -12.43996,-24.7031 11.36448,-12.1593 21.37493,11.0956 26.46746,10.8385 37.09601,-4.2292 11.59799,-15.3129 12.81274,-14.5888 11.90222,6.272 -0.92231,16.7376 2.97899,24.0025 14.62418,25.182 23.53555,3.3282 26.0122,21.2689 2.96724,19.8795 -13.82932,-1.6582 -21.3278,5.3967 -24.18899,22.6251 l -4.29769,23.7808 z"
       id="path75" />
    <path
       d="m 1597.4694,1559.3353 c -3.9249,-15.5111 -11.9376,-18.6412 -31.3265,-13.735 -24.4814,5.1632 -25.6961,4.4391 -12.3928,-8.2109 11.6098,-11.1898 12.065,-21.6203 2.557,-38.8132 -11.9494,-22.7642 -12.1947,-23.7337 9.4256,-11.6687 21.3749,11.0956 23.3137,10.605 35.6241,-10.0458 13.5251,-19.9266 13.5251,-19.9266 14.32,3.5972 0.2924,17.4617 7.1138,28.1139 19.7402,33.171 18.4548,7.7085 17.7307,8.9232 -1.4129,14.7989 -12.6028,3.1889 -20.8254,11.4587 -18.863,19.2143 1.9625,7.7555 0.5378,18.4311 -4.543,22.8113 -4.1112,4.1349 -10.4303,-0.4552 -13.1287,-11.1191 z"
       id="path77" />
    <path
       d="m 234.60378,1880.4684 c -2.94368,-11.6333 597.56603,-524.6169 615.50667,-527.0935 11.87866,-1.9742 21.87733,17.1575 11.21344,19.856 -5.81668,1.4718 -146.39588,118.5337 -313.8271,259.926 -166.46178,141.1471 -305.10209,257.7183 -306.07154,257.9636 -1.93888,0.4906 -5.34962,-4.8355 -6.82147,-10.6521 z"
       id="path79" />
    <path
       d="m 1508.3254,1512.7805 c -12.6264,-5.0572 -136.6822,-46.904 -275.7821,-91.1331 -139.0998,-44.2292 -253.92834,-82.2218 -256.11254,-82.7007 -2.1841,-0.4788 1.6818,-5.5831 8.7015,-10.4539 6.0502,-4.6254 120.13094,26.3357 252.67824,69.1283 270.6777,87.2672 302.7283,99.7875 305.9173,112.3903 3.4343,13.5723 -8.6896,14.577 -35.4024,2.7691 z"
       id="path81" />
    <path
       d="m 1639.177,1471.4178 c -1.7644,-23.2784 500.8881,-576.48591 520.0553,-574.11533 10.6757,1.42471 -1.88,21.10604 -35.9734,57.58395 -28.5338,29.91361 -148.6957,162.43958 -267.164,293.50538 -119.4378,131.3112 -216.8944,231.2722 -216.9179,223.026 z"
       id="path83" />
    <path
       d="m 921.65116,1350.745 c -7.31201,-12.5909 -21.15313,-18.3723 -33.7559,-15.1832 -20.60366,4.182 -20.60366,4.182 -7.5574,-13.5605 10.39502,-11.914 11.57442,-23.5592 3.04758,-36.8743 -10.47751,-16.9477 -9.75337,-18.1624 10.39502,-11.914 18.93362,5.5242 25.7198,3.8071 36.3483,-11.2606 11.3527,-16.2823 12.5675,-15.5582 11.9022,6.272 -1.6465,17.9523 3.715,26.911 19.7403,33.1711 19.6696,8.4325 18.9455,9.6473 -5.0453,16.7495 -19.389,4.9061 -25.6727,12.6852 -23.4414,29.6564 l 1.519,22.309 z"
       id="path85" />
    <path
       d="m 2210.1223,882.36229 c -2.4531,-9.69446 -13.374,-12.08862 -29.8546,-7.91838 l -26.175,6.62329 17.4028,-20.90788 c 14.5064,-16.04888 14.7281,-23.32562 3.0476,-36.87428 -16.7847,-17.41467 -7.3474,-24.96027 15.7328,-11.20164 10.9328,6.51723 16.7495,5.04539 23.2668,-5.88739 13.7586,-23.0803 25.649,-20.93145 19.1672,2.37059 -3.8307,17.47357 -0.1747,23.76909 20.219,30.9869 l 25.2528,10.11436 -26.1751,6.6233 c -16.4806,4.17023 -24.9485,11.47053 -22.4954,21.16499 1.9625,7.75554 -0.1982,15.5229 -6.0148,16.99474 -4.8472,1.22654 -11.4116,-4.33304 -13.3741,-12.0886 z"
       id="path87" />
  </g>
</svg>
